<svg xmlns="http://www.w3.org/2000/svg" viewBox="0 0 800 1000"><defs><linearGradient id="bg" x2="1" y2="1"><stop stop-color="#55392f"/><stop offset="1" stop-color="#171c18"/></linearGradient><radialGradient id="g"><stop stop-color="#d99045" stop-opacity=".55"/><stop offset="1" stop-color="#d99045" stop-opacity="0"/></radialGradient><filter id="s"><feDropShadow dy="25" stdDeviation="20" flood-opacity=".5"/></filter></defs><rect width="800" height="1000" fill="url(#bg)"/><circle cx="400" cy="470" r="360" fill="url(#g)"/>
  <g filter="url(#s)"><path d="M270 360h260l-25 410q-4 55-55 55H350q-51 0-55-55Z" fill="#342d29"/><ellipse cx="400" cy="360" rx="130" ry="30" fill="#171613"/><ellipse cx="400" cy="365" rx="112" ry="21" fill="#5b4937"/><path d="M400 354q-28-72 0-126q32 52 0 126" fill="#ffb640"/><path d="M397 355v-56" stroke="#211b16" stroke-width="5"/></g>
  <rect x="310" y="510" width="180" height="145" fill="#ded4c6" stroke="#c3a565" stroke-width="2"/><text x="400" y="550" text-anchor="middle" fill="#173c27" font-family="Georgia" font-size="18" letter-spacing="4">COTSWOLDS</text><text x="400" y="586" text-anchor="middle" fill="#173c27" font-family="Georgia" font-size="23">FIRESIDE</text><text x="400" y="616" text-anchor="middle" fill="#173c27" font-family="Georgia" font-size="18">EVENING</text>
  <path d="M80 880q180-80 330 25t310-45" fill="none" stroke="#a77c51" stroke-width="24" opacity=".3"/>
</svg>
