<svg xmlns="http://www.w3.org/2000/svg" viewBox="0 0 800 1000"><defs><linearGradient id="bg" y2="1"><stop stop-color="#a9b4ab"/><stop offset="1" stop-color="#34483e"/></linearGradient><filter id="s"><feDropShadow dy="24" stdDeviation="20" flood-opacity=".35"/></filter></defs><rect width="800" height="1000" fill="url(#bg)"/><g stroke="#e7ece5" stroke-width="5" opacity=".45"><path d="M80 180h150M130 110v150M610 220h110M665 165v110M90 750h120M150 690v120"/></g><path d="M0 850q200-80 400 0t400-20v170H0Z" fill="#edf0e9" opacity=".28"/>
  <g filter="url(#s)"><path d="M270 360h260l-25 410q-4 55-55 55H350q-51 0-55-55Z" fill="#243a31"/><ellipse cx="400" cy="360" rx="130" ry="30" fill="#15231d"/><ellipse cx="400" cy="365" rx="112" ry="21" fill="#685540"/><path d="M400 354q-25-65 0-115q29 48 0 115" fill="#ffb347"/><path d="M397 355v-53" stroke="#34291f" stroke-width="5"/></g><rect x="310" y="510" width="180" height="145" fill="#e9e3d8" stroke="#c7a766" stroke-width="2"/><text x="400" y="550" text-anchor="middle" fill="#173c27" font-family="Georgia" font-size="18" letter-spacing="4">COTSWOLDS</text><text x="400" y="585" text-anchor="middle" fill="#173c27" font-family="Georgia" font-size="20">WINTER AT</text><text x="400" y="616" text-anchor="middle" fill="#173c27" font-family="Georgia" font-size="19">BROADWAY</text></svg>
